# xmcd
#
# Track frame offsets:
#	187
#	20890
#	41772
#	61277
#	97975
#	116815
#	139510
#	180442
#	229425
#
# Disc length: 3730 seconds
#
# Revision: 6
# Processed by: cddbd v1.5.2PL0 Copyright (c) Steve Scherf et al.
# Submitted via: audiograbber 1.83.01
#
DISCID=7a0e9009
DTITLE=Various Artist - Blues In The Night
DYEAR=1992
DGENRE=Blues
TTITLE0=Junior Parker - I Need Your Love So Bad
TTITLE1=Junior Parker - Don't Throw Your Love On Me So Strong
TTITLE2=Junior Parker - Hey Pretty Baby
TTITLE3=Jimmy McGriff - C Jam Blues
TTITLE4=Dakota Staton - Cry Me A River
TTITLE5=Dakota Staton - It's The Talk Of The Town
TTITLE6=Jimmy McGriff - Freedom Suite
TTITLE7=Groove Holmes - Groovin' Groove
TTITLE8=Groove Holmes - Here's That Rainy Day
EXTD=
EXTT0=
EXTT1=
EXTT2=
EXTT3=
EXTT4=
EXTT5=
EXTT6=
EXTT7=
EXTT8=
PLAYORDER=
